HIERARCHY
ROOT Hips
{
	OFFSET 0.000000 0.000000 0.000000
	CHANNELS 6 Xposition Yposition Zposition Xrotation Yrotation Zrotation
	JOINT Chest
	{
		OFFSET 0.000000 0.009282 11.569106
		CHANNELS 3 Xrotation Yrotation Zrotation
		JOINT Chest2
		{
			OFFSET 0.000000 -0.016863 9.269641
			CHANNELS 3 Xrotation Yrotation Zrotation
			JOINT Chest3
			{
				OFFSET 0.000000 0.000000 8.374491
				CHANNELS 3 Xrotation Yrotation Zrotation
				JOINT Chest4
				{
					OFFSET 0.000000 0.000000 8.374493
					CHANNELS 3 Xrotation Yrotation Zrotation
					JOINT Neck
					{
						OFFSET 0.000000 -0.000001 12.152554
						CHANNELS 3 Xrotation Yrotation Zrotation
						JOINT Head
						{
							OFFSET 0.000000 -0.040100 7.802319
							CHANNELS 3 Xrotation Yrotation Zrotation
							End Site
							{
								OFFSET 0.000000 -0.020946 14.853096
							}
						}
					}
					JOINT RightCollar
					{
						OFFSET -2.894404 0.000000 6.791374
						CHANNELS 3 Xrotation Yrotation Zrotation
						JOINT RightShoulder
						{
							OFFSET -13.574684 0.000000 0.000000
							CHANNELS 3 Xrotation Yrotation Zrotation
							JOINT RightElbow
							{
								OFFSET -23.923903 0.000000 0.000000
								CHANNELS 3 Xrotation Yrotation Zrotation
								JOINT RightWrist
								{
									OFFSET -19.846718 -0.012765 0.000000
									CHANNELS 3 Xrotation Yrotation Zrotation
									End Site
									{
										OFFSET -14.973145 0.000000 0.000000
									}
								}
							}
						}
					}
					JOINT LeftCollar
					{
						OFFSET 2.894404 0.000000 6.791374
						CHANNELS 3 Xrotation Yrotation Zrotation
						JOINT LeftShoulder
						{
							OFFSET 13.574684 0.000000 0.000000
							CHANNELS 3 Xrotation Yrotation Zrotation
							JOINT LeftElbow
							{
								OFFSET 23.923903 0.000000 0.000000
								CHANNELS 3 Xrotation Yrotation Zrotation
								JOINT LeftWrist
								{
									OFFSET 19.846718 -0.012765 0.000000
									CHANNELS 3 Xrotation Yrotation Zrotation
									End Site
									{
										OFFSET 14.973145 0.000000 0.000000
									}
								}
							}
						}
					}
				}
			}
		}
	}
	JOINT RightHip
	{
		OFFSET -9.469263 -0.004642 0.045487
		CHANNELS 3 Xrotation Yrotation Zrotation
		JOINT RightKnee
		{
			OFFSET 0.000000 -0.002666 -40.478676
			CHANNELS 3 Xrotation Yrotation Zrotation
			JOINT RightAnkle
			{
				OFFSET 0.000000 -0.049110 -35.224068
				CHANNELS 3 Xrotation Yrotation Zrotation
				JOINT RightToe
				{
					OFFSET 0.000000 -12.539530 -6.151390
					CHANNELS 3 Xrotation Yrotation Zrotation
					End Site
					{
						OFFSET 0.000000 -5.044995 -1.291870
					}
				}
			}
		}
	}
	JOINT LeftHip
	{
		OFFSET 9.469263 -0.004642 0.045487
		CHANNELS 3 Xrotation Yrotation Zrotation
		JOINT LeftKnee
		{
			OFFSET 0.000000 -0.002666 -40.478676
			CHANNELS 3 Xrotation Yrotation Zrotation
			JOINT LeftAnkle
			{
				OFFSET 0.000000 -0.049110 -35.224068
				CHANNELS 3 Xrotation Yrotation Zrotation
				JOINT LeftToe
				{
					OFFSET 0.000000 -12.539530 -6.151390
					CHANNELS 3 Xrotation Yrotation Zrotation
					End Site
					{
						OFFSET 0.000000 -5.044995 -1.291870
					}
				}
			}
		}
	}
}
MOTION
Frames: 12
Frame Time: 0.016667
-16.331129 -5.804692 83.184906 4.809040 6.321632 -110.102800 6.402986 14.446682 17.262487 3.367160 6.115736 7.772072 3.367161 6.115738 7.772070 2.601504 4.545066 5.857516 15.772888 -7.361687 8.161804 -6.053718 -16.328213 12.360797 6.034862 -9.898827 -12.399229 52.955799 -52.306985 120.654335 31.997073 7.888329 43.423744 -35.104468 50.957340 63.004397 10.351597 -10.960542 -26.428710 -82.728918 40.534868 -7.933937 -50.661603 9.385000 -17.676284 -38.979343 12.851879 -3.627306 8.271798 -4.898147 -7.525992 4.776635 -2.115297 -1.790425 -5.736069 0.119881 1.984249 -0.160801 0.052601 -0.021365 7.548162 -7.011751 0.541179 1.999676 0.539047 -1.598982 -2.567979 1.419968 4.066145 0.193009 -0.009329 0.050525 
-16.316189 -5.839770 83.193970 4.841852 6.205840 -110.092227 6.516239 14.532199 17.221304 3.418352 6.153657 7.758659 3.418353 6.153651 7.758657 2.640187 4.572936 5.848130 15.661487 -7.356960 8.179919 -6.259569 -16.336556 12.382539 6.016356 -10.064268 -12.181667 53.071461 -52.330925 120.027106 32.603963 7.566482 43.006064 -34.178977 50.894492 61.924694 10.462420 -10.870533 -26.452889 -82.567643 40.415008 -7.625611 -50.886081 8.841387 -17.122441 -38.826613 12.744865 -3.799143 8.158431 -4.971629 -7.457227 4.760031 -2.066981 -1.839221 -5.713170 0.077858 1.970454 -0.150325 0.039812 -0.018655 7.468638 -7.083824 0.526841 1.923230 0.569144 -1.532540 -2.532715 1.442536 4.006221 0.196712 -0.051793 0.048931 
-16.305695 -5.873064 83.200699 4.865475 6.082956 -110.085799 6.586290 14.583654 17.205805 3.449958 6.177483 7.754159 3.449957 6.177478 7.754159 2.664112 4.590440 5.845171 15.590578 -7.352799 8.184869 -6.391906 -16.337495 12.384459 6.062642 -10.261611 -11.942361 53.075744 -52.267449 119.304417 33.121718 7.315853 42.487141 -33.374203 50.834427 61.046858 10.543076 -10.702013 -26.495400 -82.176608 40.340368 -7.363443 -51.011333 8.267476 -16.637685 -38.812687 12.434064 -4.154564 8.022767 -5.025409 -7.363052 4.779892 -2.040963 -1.899977 -5.710785 0.044106 1.965958 -0.141416 0.030806 -0.020319 7.391491 -7.145282 0.568172 1.837401 0.605700 -1.494615 -2.500341 1.460784 3.960298 0.202343 -0.091606 0.050561 
-16.301716 -5.913488 83.208168 4.872623 5.966344 -110.080151 6.624832 14.623891 17.213463 3.468974 6.197596 7.757706 3.468978 6.197597 7.757706 2.678643 4.605265 5.848104 15.560872 -7.353756 8.188499 -6.447002 -16.343348 12.387265 6.105158 -10.465441 -11.710814 53.168959 -52.233148 118.600935 33.620011 6.976332 41.965775 -32.800464 50.755006 60.347358 10.804132 -10.692699 -26.457344 -81.885205 40.306507 -7.031686 -51.077077 7.756245 -16.201052 -38.785431 12.103490 -4.615784 7.873193 -5.043927 -7.267305 4.836985 -2.037562 -1.968915 -5.732190 0.012097 1.938299 -0.131392 0.026932 -0.026789 7.314946 -7.185647 0.655560 1.754388 0.640368 -1.498190 -2.461397 1.480692 3.933355 0.199465 -0.126980 0.053837 
-16.301764 -5.955499 83.217422 4.875893 5.864924 -110.051928 6.678671 14.661300 17.211447 3.494997 6.215071 7.758183 3.495000 6.215071 7.758183 2.698360 4.618046 5.848799 15.543528 -7.354978 8.196928 -6.477907 -16.350194 12.400447 6.112101 -10.586504 -11.532807 53.527182 -52.304158 118.134078 34.172177 6.535648 41.500458 -32.263232 50.588380 59.596638 10.940485 -10.614133 -26.449610 -81.380393 40.277284 -6.852752 -51.220835 7.147581 -15.711892 -38.645579 11.962635 -5.037723 7.733733 -5.050580 -7.176240 4.907620 -2.037115 -2.067371 -5.757395 -0.019026 1.947558 -0.129194 0.018605 -0.029698 7.230689 -7.209965 0.724253 1.705951 0.657510 -1.522245 -2.433533 1.505276 3.889315 0.190381 -0.153756 0.055997 
-16.306036 -5.998022 83.226723 4.875513 5.769102 -109.986775 6.751490 14.693004 17.168649 3.527729 6.227777 7.741672 3.527731 6.227783 7.741672 2.722874 4.627260 5.836812 15.526072 -7.349835 8.222241 -6.505899 -16.351336 12.447276 6.185007 -10.655023 -11.324695 53.814121 -52.355401 117.708434 34.654099 6.060907 41.089708 -31.606301 50.405123 58.740412 10.996865 -10.461374 -26.432089 -80.843369 40.247675 -6.757374 -51.403744 6.513493 -15.172186 -38.488393 11.833912 -5.422065 7.602054 -5.064855 -7.108752 4.975530 -2.025748 -2.173425 -5.784522 -0.044619 1.946175 -0.130744 0.003915 -0.030074 7.125626 -7.225890 0.736700 1.694790 0.661872 -1.531467 -2.422544 1.529620 3.830604 0.181383 -0.170707 0.054557 
-16.311867 -6.038052 83.233231 4.867844 5.663858 -109.903426 6.842161 14.722369 17.099597 3.566537 6.238168 7.713649 3.566536 6.238161 7.713648 2.751787 4.634726 5.816262 15.496021 -7.336739 8.251861 -6.556908 -16.340741 12.503279 6.262083 -10.705577 -11.097522 53.962685 -52.320093 117.268829 35.121779 5.729170 40.636531 -30.837765 50.246994 57.758832 11.014756 -10.274962 -26.438747 -80.394550 40.182542 -6.632126 -51.582108 5.975729 -14.662625 -38.435162 11.593355 -5.791798 7.456216 -5.078946 -7.066036 5.054407 -2.013406 -2.271061 -5.827928 -0.059496 1.934028 -0.126961 -0.015982 -0.031085 7.003905 -7.231759 0.730845 1.694081 0.662778 -1.547063 -2.420355 1.540687 3.861642 0.177439 -0.178662 0.054743 
-16.320677 -6.082584 83.237411 4.856502 5.560425 -109.823240 6.947548 14.753538 17.029868 3.611845 6.249093 7.684922 3.611848 6.249095 7.684920 2.785574 4.642519 5.795252 15.453192 -7.318064 8.277184 -6.632871 -16.319747 12.551625 6.250053 -10.779440 -10.877356 54.019737 -52.221485 116.799049 35.548273 5.466976 40.122136 -29.849832 50.062913 56.588855 10.993566 -10.102643 -26.462321 -80.095101 40.140089 -6.420597 -51.638873 5.487610 -14.227500 -38.502992 11.252837 -6.217568 7.310010 -5.077868 -7.026937 5.138464 -2.016708 -2.332755 -5.877642 -0.059054 1.895473 -0.120106 -0.037016 -0.033927 6.883470 -7.240005 0.731031 1.691416 0.669222 -1.589356 -2.418735 1.547640 3.870446 0.176599 -0.181081 0.055242 
-16.329313 -6.127057 83.242065 4.843228 5.460687 -109.762397 7.024364 14.777229 16.997073 3.646375 6.258997 7.670709 3.646372 6.258990 7.670709 2.811416 4.649598 5.785002 15.427516 -7.311350 8.288412 -6.679095 -16.313948 12.571698 6.290109 -10.920668 -10.682634 53.951883 -52.133468 116.280105 35.927078 5.197614 39.629147 -28.794326 49.873355 55.377733 11.091042 -10.054184 -26.445183 -79.999724 40.189615 -6.114534 -51.581906 5.022574 -13.843406 -38.548768 10.920894 -6.713384 7.168559 -5.067270 -6.962615 5.217949 -2.030101 -2.381449 -5.920716 -0.045733 1.839927 -0.115243 -0.057668 -0.035963 6.773371 -7.238121 0.766701 1.683107 0.668607 -1.644572 -2.412996 1.557458 3.834198 0.173864 -0.183208 0.057571 
-16.342707 -6.166114 83.249496 4.833116 5.379778 -109.702489 7.083684 14.777811 16.962573 3.671754 6.259390 7.655084 3.671753 6.259392 7.655085 2.830279 4.649665 5.773564 15.425188 -7.300787 8.302488 -6.680959 -16.299893 12.601264 6.413216 -11.027209 -10.398244 53.832546 -52.149280 115.756243 36.176230 4.761596 39.196523 -27.922428 49.616980 54.340606 11.274760 -10.000316 -26.401451 -79.898576 40.260349 -5.881625 -51.510158 4.518463 -13.473662 -38.521891 10.647644 -7.190695 7.060837 -5.065675 -6.909435 5.271948 -2.028184 -2.431036 -5.950372 -0.033672 1.781845 -0.114475 -0.076623 -0.035979 6.693145 -7.242494 0.822414 1.659515 0.681707 -1.707310 -2.392006 1.561803 3.788549 0.163690 -0.182956 0.058807 
-16.364454 -6.192029 83.259140 4.828325 5.306440 -109.630840 7.149956 14.790573 16.931542 3.699671 6.264117 7.642436 3.699671 6.264117 7.642437 2.851121 4.652940 5.764397 15.400588 -7.307106 8.310446 -6.725477 -16.316560 12.610952 6.461370 -11.113352 -10.177583 53.858637 -52.168992 115.347470 36.244208 4.143059 38.828229 -27.347169 49.299486 53.503925 11.276846 -9.867450 -26.419160 -79.432757 40.272004 -5.885067 -51.566651 4.016033 -13.044316 -38.496654 10.329923 -7.611779 6.996135 -5.079511 -6.915057 5.274734 -2.014651 -2.446368 -5.954875 -0.024037 1.748161 -0.120757 -0.090246 -0.033760 6.636552 -7.256153 0.864933 1.618396 0.700421 -1.749736 -2.363090 1.556874 3.752852 0.151025 -0.174313 0.058882 
-16.391563 -6.208776 83.269623 4.830508 5.227723 -109.554472 7.222729 14.836086 16.902859 3.732187 6.280735 7.631976 3.732186 6.280729 7.631975 2.875578 4.665065 5.756972 15.344075 -7.339738 8.316145 -6.829775 -16.383438 12.603483 6.463359 -11.225000 -9.991906 53.923087 -52.137890 115.005004 36.175250 3.555375 38.499741 -26.871919 49.028799 52.676492 11.250307 -9.796626 -26.472338 -78.883412 40.200304 -5.979308 -51.622962 3.563347 -12.622348 -38.584285 9.997114 -8.000409 6.945366 -5.103706 -6.958356 5.256748 -2.006849 -2.435699 -5.948841 -0.016356 1.726444 -0.131332 -0.093346 -0.032588 6.591115 -7.281464 0.878353 1.557672 0.717055 -1.788295 -2.328108 1.547134 3.759407 0.139893 -0.159334 0.058425 
